<?xml version="1.0" encoding="UTF-8" standalone="no"?>
<!DOCTYPE svg PUBLIC "-//W3C//DTD SVG 1.1//EN"
 "http://www.w3.org/Graphics/SVG/1.1/DTD/svg11.dtd">
<!-- Generated by graphviz version 5.0.0 (20220707.1540)
 -->
<!-- Title: dependencies Pages: 1 -->
<svg width="3219pt" height="247pt"
 viewBox="0.00 0.00 3219.00 246.80" xmlns="http://www.w3.org/2000/svg" xmlns:xlink="http://www.w3.org/1999/xlink">
<g id="graph0" class="graph" transform="scale(1 1) rotate(0) translate(4 242.8)">
<title>dependencies</title>
<polygon fill="white" stroke="transparent" points="-4,4 -4,-242.8 3215,-242.8 3215,4 -4,4"/>
<text text-anchor="middle" x="1605.5" y="-8.2" font-family="sans-serif" font-size="14.00">dependencies</text>
<g id="clust1" class="cluster">
<title>cluster_AppModule</title>
<polygon fill="none" stroke="black" stroke-dasharray="1,5" points="8,-32.8 8,-230.8 3203,-230.8 3203,-32.8 8,-32.8"/>
</g>
<g id="clust23" class="cluster">
<title>cluster_AppModule_imports</title>
<polygon fill="none" stroke="black" points="3051,-40.8 3051,-92.8 3195,-92.8 3195,-40.8 3051,-40.8"/>
</g>
<g id="clust25" class="cluster">
<title>cluster_AppModule_bootstrap</title>
<polygon fill="none" stroke="black" points="1549,-170.8 1549,-222.8 1673,-222.8 1673,-170.8 1549,-170.8"/>
</g>
<g id="clust2" class="cluster">
<title>cluster_AppModule_declarations</title>
<polygon fill="none" stroke="black" points="16,-40.8 16,-92.8 3043,-92.8 3043,-40.8 16,-40.8"/>
</g>
<!-- AgePipe -->
<g id="node1" class="node">
<title>AgePipe</title>
<polygon fill="#ffffb3" stroke="black" points="3035.21,-84.8 2970.79,-84.8 2970.79,-48.8 3035.21,-48.8 3035.21,-84.8"/>
<text text-anchor="middle" x="3003" y="-62.6" font-family="Times,serif" font-size="14.00">AgePipe</text>
</g>
<!-- AppModule -->
<g id="node21" class="node">
<title>AppModule</title>
<polygon fill="#8dd3c7" stroke="black" points="1652.66,-149.8 1649.66,-153.8 1628.66,-153.8 1625.66,-149.8 1569.34,-149.8 1569.34,-113.8 1652.66,-113.8 1652.66,-149.8"/>
<text text-anchor="middle" x="1611" y="-127.6" font-family="Times,serif" font-size="14.00">AppModule</text>
</g>
<!-- AgePipe&#45;&gt;AppModule -->
<g id="edge1" class="edge">
<title>AgePipe&#45;&gt;AppModule</title>
<path fill="none" stroke="black" d="M3003,-85.05C3003,-107.82 3003,-143.8 3003,-143.8 3003,-143.8 1663.04,-143.8 1663.04,-143.8"/>
<polygon fill="black" stroke="black" points="1663.04,-140.3 1653.04,-143.8 1663.04,-147.3 1663.04,-140.3"/>
</g>
<!-- AppComponent -->
<g id="node2" class="node">
<title>AppComponent</title>
<polygon fill="#ffffb3" stroke="black" points="2952.94,-84.8 2847.06,-84.8 2847.06,-48.8 2952.94,-48.8 2952.94,-84.8"/>
<text text-anchor="middle" x="2900" y="-62.6" font-family="Times,serif" font-size="14.00">AppComponent</text>
</g>
<!-- AppComponent&#45;&gt;AppModule -->
<g id="edge2" class="edge">
<title>AppComponent&#45;&gt;AppModule</title>
<path fill="none" stroke="black" d="M2900,-85.09C2900,-107.01 2900,-140.8 2900,-140.8 2900,-140.8 1662.79,-140.8 1662.79,-140.8"/>
<polygon fill="black" stroke="black" points="1662.79,-137.3 1652.79,-140.8 1662.79,-144.3 1662.79,-137.3"/>
</g>
<!-- ChatComponent -->
<g id="node3" class="node">
<title>ChatComponent</title>
<polygon fill="#ffffb3" stroke="black" points="2828.77,-84.8 2721.23,-84.8 2721.23,-48.8 2828.77,-48.8 2828.77,-84.8"/>
<text text-anchor="middle" x="2775" y="-62.6" font-family="Times,serif" font-size="14.00">ChatComponent</text>
</g>
<!-- ChatComponent&#45;&gt;AppModule -->
<g id="edge3" class="edge">
<title>ChatComponent&#45;&gt;AppModule</title>
<path fill="none" stroke="black" d="M2775,-84.83C2775,-105.57 2775,-136.8 2775,-136.8 2775,-136.8 1662.77,-136.8 1662.77,-136.8"/>
<polygon fill="black" stroke="black" points="1662.77,-133.3 1652.77,-136.8 1662.77,-140.3 1662.77,-133.3"/>
</g>
<!-- ChatRoomComponent -->
<g id="node4" class="node">
<title>ChatRoomComponent</title>
<polygon fill="#ffffb3" stroke="black" points="2703,-84.8 2561,-84.8 2561,-48.8 2703,-48.8 2703,-84.8"/>
<text text-anchor="middle" x="2632" y="-62.6" font-family="Times,serif" font-size="14.00">ChatRoomComponent</text>
</g>
<!-- ChatRoomComponent&#45;&gt;AppModule -->
<g id="edge4" class="edge">
<title>ChatRoomComponent&#45;&gt;AppModule</title>
<path fill="none" stroke="black" d="M2632,-85.11C2632,-104.95 2632,-133.8 2632,-133.8 2632,-133.8 1662.93,-133.8 1662.93,-133.8"/>
<polygon fill="black" stroke="black" points="1662.93,-130.3 1652.93,-133.8 1662.93,-137.3 1662.93,-130.3"/>
</g>
<!-- ChatTopBarComponent -->
<g id="node5" class="node">
<title>ChatTopBarComponent</title>
<polygon fill="#ffffb3" stroke="black" points="2543.04,-84.8 2392.96,-84.8 2392.96,-48.8 2543.04,-48.8 2543.04,-84.8"/>
<text text-anchor="middle" x="2468" y="-62.6" font-family="Times,serif" font-size="14.00">ChatTopBarComponent</text>
</g>
<!-- ChatTopBarComponent&#45;&gt;AppModule -->
<g id="edge5" class="edge">
<title>ChatTopBarComponent&#45;&gt;AppModule</title>
<path fill="none" stroke="black" d="M2468,-84.97C2468,-103.89 2468,-130.8 2468,-130.8 2468,-130.8 1662.92,-130.8 1662.92,-130.8"/>
<polygon fill="black" stroke="black" points="1662.92,-127.3 1652.92,-130.8 1662.91,-134.3 1662.92,-127.3"/>
</g>
<!-- ChatUserListComponent -->
<g id="node6" class="node">
<title>ChatUserListComponent</title>
<polygon fill="#ffffb3" stroke="black" points="2374.99,-84.8 2219.01,-84.8 2219.01,-48.8 2374.99,-48.8 2374.99,-84.8"/>
<text text-anchor="middle" x="2297" y="-62.6" font-family="Times,serif" font-size="14.00">ChatUserListComponent</text>
</g>
<!-- ChatUserListComponent&#45;&gt;AppModule -->
<g id="edge6" class="edge">
<title>ChatUserListComponent&#45;&gt;AppModule</title>
<path fill="none" stroke="black" d="M2297,-85.1C2297,-103.07 2297,-127.8 2297,-127.8 2297,-127.8 1662.88,-127.8 1662.88,-127.8"/>
<polygon fill="black" stroke="black" points="1662.88,-124.3 1652.88,-127.8 1662.88,-131.3 1662.88,-124.3"/>
</g>
<!-- ChatUserModalComponent -->
<g id="node7" class="node">
<title>ChatUserModalComponent</title>
<polygon fill="#ffffb3" stroke="black" points="2201.26,-84.8 2030.74,-84.8 2030.74,-48.8 2201.26,-48.8 2201.26,-84.8"/>
<text text-anchor="middle" x="2116" y="-62.6" font-family="Times,serif" font-size="14.00">ChatUserModalComponent</text>
</g>
<!-- ChatUserModalComponent&#45;&gt;AppModule -->
<g id="edge7" class="edge">
<title>ChatUserModalComponent&#45;&gt;AppModule</title>
<path fill="none" stroke="black" d="M2116,-84.84C2116,-101.53 2116,-123.8 2116,-123.8 2116,-123.8 1662.76,-123.8 1662.76,-123.8"/>
<polygon fill="black" stroke="black" points="1662.76,-120.3 1652.76,-123.8 1662.76,-127.3 1662.76,-120.3"/>
</g>
<!-- DirectoryComponent -->
<g id="node8" class="node">
<title>DirectoryComponent</title>
<polygon fill="#ffffb3" stroke="black" points="2012.47,-84.8 1877.53,-84.8 1877.53,-48.8 2012.47,-48.8 2012.47,-84.8"/>
<text text-anchor="middle" x="1945" y="-62.6" font-family="Times,serif" font-size="14.00">DirectoryComponent</text>
</g>
<!-- DirectoryComponent&#45;&gt;AppModule -->
<g id="edge8" class="edge">
<title>DirectoryComponent&#45;&gt;AppModule</title>
<path fill="none" stroke="black" d="M1945,-85.08C1945,-100.75 1945,-120.8 1945,-120.8 1945,-120.8 1662.96,-120.8 1662.96,-120.8"/>
<polygon fill="black" stroke="black" points="1662.96,-117.3 1652.96,-120.8 1662.96,-124.3 1662.96,-117.3"/>
</g>
<!-- DirectoryModalComponent -->
<g id="node9" class="node">
<title>DirectoryModalComponent</title>
<polygon fill="#ffffb3" stroke="black" points="1859.53,-84.8 1688.47,-84.8 1688.47,-48.8 1859.53,-48.8 1859.53,-84.8"/>
<text text-anchor="middle" x="1774" y="-62.6" font-family="Times,serif" font-size="14.00">DirectoryModalComponent</text>
</g>
<!-- DirectoryModalComponent&#45;&gt;AppModule -->
<g id="edge9" class="edge">
<title>DirectoryModalComponent&#45;&gt;AppModule</title>
<path fill="none" stroke="black" d="M1774,-84.92C1774,-99.58 1774,-117.8 1774,-117.8 1774,-117.8 1662.98,-117.8 1662.98,-117.8"/>
<polygon fill="black" stroke="black" points="1662.98,-114.3 1652.98,-117.8 1662.98,-121.3 1662.98,-114.3"/>
</g>
<!-- FinderComponent -->
<g id="node10" class="node">
<title>FinderComponent</title>
<polygon fill="#ffffb3" stroke="black" points="1669.88,-84.8 1552.12,-84.8 1552.12,-48.8 1669.88,-48.8 1669.88,-84.8"/>
<text text-anchor="middle" x="1611" y="-62.6" font-family="Times,serif" font-size="14.00">FinderComponent</text>
</g>
<!-- FinderComponent&#45;&gt;AppModule -->
<g id="edge10" class="edge">
<title>FinderComponent&#45;&gt;AppModule</title>
<path fill="none" stroke="black" d="M1611,-84.91C1611,-84.91 1611,-103.79 1611,-103.79"/>
<polygon fill="black" stroke="black" points="1607.5,-103.79 1611,-113.79 1614.5,-103.79 1607.5,-103.79"/>
</g>
<!-- LoginComponent -->
<g id="node11" class="node">
<title>LoginComponent</title>
<polygon fill="#ffffb3" stroke="black" points="1534.27,-84.8 1419.73,-84.8 1419.73,-48.8 1534.27,-48.8 1534.27,-84.8"/>
<text text-anchor="middle" x="1477" y="-62.6" font-family="Times,serif" font-size="14.00">LoginComponent</text>
</g>
<!-- LoginComponent&#45;&gt;AppModule -->
<g id="edge11" class="edge">
<title>LoginComponent&#45;&gt;AppModule</title>
<path fill="none" stroke="black" d="M1477,-84.92C1477,-99.58 1477,-117.8 1477,-117.8 1477,-117.8 1559.34,-117.8 1559.34,-117.8"/>
<polygon fill="black" stroke="black" points="1559.34,-121.3 1569.34,-117.8 1559.34,-114.3 1559.34,-121.3"/>
</g>
<!-- OverviewComponent -->
<g id="node12" class="node">
<title>OverviewComponent</title>
<polygon fill="#ffffb3" stroke="black" points="1401.03,-84.8 1264.97,-84.8 1264.97,-48.8 1401.03,-48.8 1401.03,-84.8"/>
<text text-anchor="middle" x="1333" y="-62.6" font-family="Times,serif" font-size="14.00">OverviewComponent</text>
</g>
<!-- OverviewComponent&#45;&gt;AppModule -->
<g id="edge12" class="edge">
<title>OverviewComponent&#45;&gt;AppModule</title>
<path fill="none" stroke="black" d="M1333,-85.08C1333,-100.75 1333,-120.8 1333,-120.8 1333,-120.8 1559.08,-120.8 1559.08,-120.8"/>
<polygon fill="black" stroke="black" points="1559.08,-124.3 1569.08,-120.8 1559.08,-117.3 1559.08,-124.3"/>
</g>
<!-- ProfilComponent -->
<g id="node13" class="node">
<title>ProfilComponent</title>
<polygon fill="#ffffb3" stroke="black" points="1246.72,-84.8 1133.28,-84.8 1133.28,-48.8 1246.72,-48.8 1246.72,-84.8"/>
<text text-anchor="middle" x="1190" y="-62.6" font-family="Times,serif" font-size="14.00">ProfilComponent</text>
</g>
<!-- ProfilComponent&#45;&gt;AppModule -->
<g id="edge13" class="edge">
<title>ProfilComponent&#45;&gt;AppModule</title>
<path fill="none" stroke="black" d="M1190,-84.84C1190,-101.53 1190,-123.8 1190,-123.8 1190,-123.8 1559.09,-123.8 1559.09,-123.8"/>
<polygon fill="black" stroke="black" points="1559.09,-127.3 1569.09,-123.8 1559.09,-120.3 1559.09,-127.3"/>
</g>
<!-- RegisterComponent -->
<g id="node14" class="node">
<title>RegisterComponent</title>
<polygon fill="#ffffb3" stroke="black" points="1114.99,-84.8 987.01,-84.8 987.01,-48.8 1114.99,-48.8 1114.99,-84.8"/>
<text text-anchor="middle" x="1051" y="-62.6" font-family="Times,serif" font-size="14.00">RegisterComponent</text>
</g>
<!-- RegisterComponent&#45;&gt;AppModule -->
<g id="edge14" class="edge">
<title>RegisterComponent&#45;&gt;AppModule</title>
<path fill="none" stroke="black" d="M1051,-85.1C1051,-103.07 1051,-127.8 1051,-127.8 1051,-127.8 1558.91,-127.8 1558.91,-127.8"/>
<polygon fill="black" stroke="black" points="1558.91,-131.3 1568.91,-127.8 1558.91,-124.3 1558.91,-131.3"/>
</g>
<!-- SideBarLeftComponent -->
<g id="node15" class="node">
<title>SideBarLeftComponent</title>
<polygon fill="#ffffb3" stroke="black" points="968.75,-84.8 819.25,-84.8 819.25,-48.8 968.75,-48.8 968.75,-84.8"/>
<text text-anchor="middle" x="894" y="-62.6" font-family="Times,serif" font-size="14.00">SideBarLeftComponent</text>
</g>
<!-- SideBarLeftComponent&#45;&gt;AppModule -->
<g id="edge15" class="edge">
<title>SideBarLeftComponent&#45;&gt;AppModule</title>
<path fill="none" stroke="black" d="M894,-84.97C894,-103.89 894,-130.8 894,-130.8 894,-130.8 1559.09,-130.8 1559.09,-130.8"/>
<polygon fill="black" stroke="black" points="1559.09,-134.3 1569.09,-130.8 1559.09,-127.3 1559.09,-134.3"/>
</g>
<!-- SideBarRightComponent -->
<g id="node16" class="node">
<title>SideBarRightComponent</title>
<polygon fill="#ffffb3" stroke="black" points="800.55,-84.8 643.45,-84.8 643.45,-48.8 800.55,-48.8 800.55,-84.8"/>
<text text-anchor="middle" x="722" y="-62.6" font-family="Times,serif" font-size="14.00">SideBarRightComponent</text>
</g>
<!-- SideBarRightComponent&#45;&gt;AppModule -->
<g id="edge16" class="edge">
<title>SideBarRightComponent&#45;&gt;AppModule</title>
<path fill="none" stroke="black" d="M722,-85.11C722,-104.95 722,-133.8 722,-133.8 722,-133.8 1559.31,-133.8 1559.31,-133.8"/>
<polygon fill="black" stroke="black" points="1559.31,-137.3 1569.31,-133.8 1559.31,-130.3 1559.31,-137.3"/>
</g>
<!-- UserComponent -->
<g id="node17" class="node">
<title>UserComponent</title>
<polygon fill="#ffffb3" stroke="black" points="624.77,-84.8 517.23,-84.8 517.23,-48.8 624.77,-48.8 624.77,-84.8"/>
<text text-anchor="middle" x="571" y="-62.6" font-family="Times,serif" font-size="14.00">UserComponent</text>
</g>
<!-- UserComponent&#45;&gt;AppModule -->
<g id="edge17" class="edge">
<title>UserComponent&#45;&gt;AppModule</title>
<path fill="none" stroke="black" d="M571,-84.83C571,-105.57 571,-136.8 571,-136.8 571,-136.8 1559.27,-136.8 1559.27,-136.8"/>
<polygon fill="black" stroke="black" points="1559.27,-140.3 1569.27,-136.8 1559.27,-133.3 1559.27,-140.3"/>
</g>
<!-- UserModalComponent -->
<g id="node18" class="node">
<title>UserModalComponent</title>
<polygon fill="#ffffb3" stroke="black" points="499.32,-84.8 354.68,-84.8 354.68,-48.8 499.32,-48.8 499.32,-84.8"/>
<text text-anchor="middle" x="427" y="-62.6" font-family="Times,serif" font-size="14.00">UserModalComponent</text>
</g>
<!-- UserModalComponent&#45;&gt;AppModule -->
<g id="edge18" class="edge">
<title>UserModalComponent&#45;&gt;AppModule</title>
<path fill="none" stroke="black" d="M427,-85.09C427,-107.01 427,-140.8 427,-140.8 427,-140.8 1559.21,-140.8 1559.21,-140.8"/>
<polygon fill="black" stroke="black" points="1559.21,-144.3 1569.21,-140.8 1559.21,-137.3 1559.21,-144.3"/>
</g>
<!-- WeatherComponent -->
<g id="node19" class="node">
<title>WeatherComponent</title>
<polygon fill="#ffffb3" stroke="black" points="336.24,-84.8 207.76,-84.8 207.76,-48.8 336.24,-48.8 336.24,-84.8"/>
<text text-anchor="middle" x="272" y="-62.6" font-family="Times,serif" font-size="14.00">WeatherComponent</text>
</g>
<!-- WeatherComponent&#45;&gt;AppModule -->
<g id="edge19" class="edge">
<title>WeatherComponent&#45;&gt;AppModule</title>
<path fill="none" stroke="black" d="M272,-85.05C272,-107.82 272,-143.8 272,-143.8 272,-143.8 1559.09,-143.8 1559.09,-143.8"/>
<polygon fill="black" stroke="black" points="1559.09,-147.3 1569.09,-143.8 1559.09,-140.3 1559.09,-147.3"/>
</g>
<!-- WeatherModalComponent -->
<g id="node20" class="node">
<title>WeatherModalComponent</title>
<polygon fill="#ffffb3" stroke="black" points="189.79,-84.8 24.21,-84.8 24.21,-48.8 189.79,-48.8 189.79,-84.8"/>
<text text-anchor="middle" x="107" y="-62.6" font-family="Times,serif" font-size="14.00">WeatherModalComponent</text>
</g>
<!-- WeatherModalComponent&#45;&gt;AppModule -->
<g id="edge20" class="edge">
<title>WeatherModalComponent&#45;&gt;AppModule</title>
<path fill="none" stroke="black" d="M107,-84.95C107,-108.56 107,-146.8 107,-146.8 107,-146.8 1559.2,-146.8 1559.2,-146.8"/>
<polygon fill="black" stroke="black" points="1559.2,-150.3 1569.2,-146.8 1559.2,-143.3 1559.2,-150.3"/>
</g>
<!-- AppComponent  -->
<g id="node23" class="node">
<title>AppComponent </title>
<polygon fill="#80b1d3" stroke="black" points="1665.44,-214.8 1556.56,-214.8 1556.56,-178.8 1665.44,-178.8 1665.44,-214.8"/>
<text text-anchor="middle" x="1611" y="-192.6" font-family="Times,serif" font-size="14.00">AppComponent </text>
</g>
<!-- AppModule&#45;&gt;AppComponent  -->
<g id="edge22" class="edge">
<title>AppModule&#45;&gt;AppComponent </title>
<path fill="none" stroke="black" stroke-dasharray="1,5" d="M1611,-149.91C1611,-149.91 1611,-168.79 1611,-168.79"/>
<polygon fill="black" stroke="black" points="1607.5,-168.79 1611,-178.79 1614.5,-168.79 1607.5,-168.79"/>
</g>
<!-- AppRoutingModule -->
<g id="node22" class="node">
<title>AppRoutingModule</title>
<polygon fill="#8dd3c7" stroke="black" points="3187.28,-84.8 3184.28,-88.8 3163.28,-88.8 3160.28,-84.8 3058.72,-84.8 3058.72,-48.8 3187.28,-48.8 3187.28,-84.8"/>
<text text-anchor="middle" x="3123" y="-62.6" font-family="Times,serif" font-size="14.00">AppRoutingModule</text>
</g>
<!-- AppRoutingModule&#45;&gt;AppModule -->
<g id="edge21" class="edge">
<title>AppRoutingModule&#45;&gt;AppModule</title>
<path fill="none" stroke="black" d="M3123,-84.95C3123,-108.56 3123,-146.8 3123,-146.8 3123,-146.8 1663.02,-146.8 1663.02,-146.8"/>
<polygon fill="black" stroke="black" points="1663.02,-143.3 1653.02,-146.8 1663.02,-150.3 1663.02,-143.3"/>
</g>
</g>
</svg>
