<?xml version="1.0" encoding="UTF-8" standalone="no"?>
<!DOCTYPE svg PUBLIC "-//W3C//DTD SVG 1.1//EN"
 "http://www.w3.org/Graphics/SVG/1.1/DTD/svg11.dtd">
<!-- Generated by graphviz version 5.0.0 (20220707.1540)
 -->
<!-- Title: dependencies Pages: 1 -->
<svg width="3219pt" height="247pt"
 viewBox="0.00 0.00 3219.00 246.80" xmlns="http://www.w3.org/2000/svg" xmlns:xlink="http://www.w3.org/1999/xlink">
<g id="graph0" class="graph" transform="scale(1 1) rotate(0) translate(4 242.8)">
<title>dependencies</title>
<polygon fill="white" stroke="transparent" points="-4,4 -4,-242.8 3215,-242.8 3215,4 -4,4"/>
<text text-anchor="middle" x="1605.5" y="-8.2" font-family="sans-serif" font-size="14.00">dependencies</text>
<g id="clust1" class="cluster">
<title>cluster_AppModule</title>
<polygon fill="none" stroke="black" stroke-dasharray="1,5" points="8,-32.8 8,-230.8 3203,-230.8 3203,-32.8 8,-32.8"/>
</g>
<g id="clust2" class="cluster">
<title>cluster_AppModule_declarations</title>
<polygon fill="none" stroke="black" points="168,-40.8 168,-92.8 3195,-92.8 3195,-40.8 168,-40.8"/>
</g>
<g id="clust23" class="cluster">
<title>cluster_AppModule_imports</title>
<polygon fill="none" stroke="black" points="16,-40.8 16,-92.8 160,-92.8 160,-40.8 16,-40.8"/>
</g>
<g id="clust25" class="cluster">
<title>cluster_AppModule_bootstrap</title>
<polygon fill="none" stroke="black" points="1567,-170.8 1567,-222.8 1691,-222.8 1691,-170.8 1567,-170.8"/>
</g>
<!-- AgePipe -->
<g id="node1" class="node">
<title>AgePipe</title>
<polygon fill="#ffffb3" stroke="black" points="3187.21,-84.8 3122.79,-84.8 3122.79,-48.8 3187.21,-48.8 3187.21,-84.8"/>
<text text-anchor="middle" x="3155" y="-62.6" font-family="Times,serif" font-size="14.00">AgePipe</text>
</g>
<!-- AppModule -->
<g id="node21" class="node">
<title>AppModule</title>
<polygon fill="#8dd3c7" stroke="black" points="1670.66,-149.8 1667.66,-153.8 1646.66,-153.8 1643.66,-149.8 1587.34,-149.8 1587.34,-113.8 1670.66,-113.8 1670.66,-149.8"/>
<text text-anchor="middle" x="1629" y="-127.6" font-family="Times,serif" font-size="14.00">AppModule</text>
</g>
<!-- AgePipe&#45;&gt;AppModule -->
<g id="edge1" class="edge">
<title>AgePipe&#45;&gt;AppModule</title>
<path fill="none" stroke="black" d="M3155,-84.95C3155,-108.56 3155,-146.8 3155,-146.8 3155,-146.8 1681.01,-146.8 1681.01,-146.8"/>
<polygon fill="black" stroke="black" points="1681.01,-143.3 1671.01,-146.8 1681.01,-150.3 1681.01,-143.3"/>
</g>
<!-- AppComponent -->
<g id="node2" class="node">
<title>AppComponent</title>
<polygon fill="#ffffb3" stroke="black" points="3104.94,-84.8 2999.06,-84.8 2999.06,-48.8 3104.94,-48.8 3104.94,-84.8"/>
<text text-anchor="middle" x="3052" y="-62.6" font-family="Times,serif" font-size="14.00">AppComponent</text>
</g>
<!-- AppComponent&#45;&gt;AppModule -->
<g id="edge2" class="edge">
<title>AppComponent&#45;&gt;AppModule</title>
<path fill="none" stroke="black" d="M3052,-85.05C3052,-107.82 3052,-143.8 3052,-143.8 3052,-143.8 1680.82,-143.8 1680.82,-143.8"/>
<polygon fill="black" stroke="black" points="1680.82,-140.3 1670.82,-143.8 1680.82,-147.3 1680.82,-140.3"/>
</g>
<!-- ChatComponent -->
<g id="node3" class="node">
<title>ChatComponent</title>
<polygon fill="#ffffb3" stroke="black" points="2980.77,-84.8 2873.23,-84.8 2873.23,-48.8 2980.77,-48.8 2980.77,-84.8"/>
<text text-anchor="middle" x="2927" y="-62.6" font-family="Times,serif" font-size="14.00">ChatComponent</text>
</g>
<!-- ChatComponent&#45;&gt;AppModule -->
<g id="edge3" class="edge">
<title>ChatComponent&#45;&gt;AppModule</title>
<path fill="none" stroke="black" d="M2927,-85.09C2927,-107.01 2927,-140.8 2927,-140.8 2927,-140.8 1680.72,-140.8 1680.72,-140.8"/>
<polygon fill="black" stroke="black" points="1680.72,-137.3 1670.72,-140.8 1680.72,-144.3 1680.72,-137.3"/>
</g>
<!-- ChatRoomComponent -->
<g id="node4" class="node">
<title>ChatRoomComponent</title>
<polygon fill="#ffffb3" stroke="black" points="2855,-84.8 2713,-84.8 2713,-48.8 2855,-48.8 2855,-84.8"/>
<text text-anchor="middle" x="2784" y="-62.6" font-family="Times,serif" font-size="14.00">ChatRoomComponent</text>
</g>
<!-- ChatRoomComponent&#45;&gt;AppModule -->
<g id="edge4" class="edge">
<title>ChatRoomComponent&#45;&gt;AppModule</title>
<path fill="none" stroke="black" d="M2784,-84.83C2784,-105.57 2784,-136.8 2784,-136.8 2784,-136.8 1680.79,-136.8 1680.79,-136.8"/>
<polygon fill="black" stroke="black" points="1680.79,-133.3 1670.79,-136.8 1680.79,-140.3 1680.79,-133.3"/>
</g>
<!-- ChatTopBarComponent -->
<g id="node5" class="node">
<title>ChatTopBarComponent</title>
<polygon fill="#ffffb3" stroke="black" points="2695.04,-84.8 2544.96,-84.8 2544.96,-48.8 2695.04,-48.8 2695.04,-84.8"/>
<text text-anchor="middle" x="2620" y="-62.6" font-family="Times,serif" font-size="14.00">ChatTopBarComponent</text>
</g>
<!-- ChatTopBarComponent&#45;&gt;AppModule -->
<g id="edge5" class="edge">
<title>ChatTopBarComponent&#45;&gt;AppModule</title>
<path fill="none" stroke="black" d="M2620,-85.11C2620,-104.95 2620,-133.8 2620,-133.8 2620,-133.8 1680.95,-133.8 1680.95,-133.8"/>
<polygon fill="black" stroke="black" points="1680.95,-130.3 1670.95,-133.8 1680.95,-137.3 1680.95,-130.3"/>
</g>
<!-- ChatUserListComponent -->
<g id="node6" class="node">
<title>ChatUserListComponent</title>
<polygon fill="#ffffb3" stroke="black" points="2526.99,-84.8 2371.01,-84.8 2371.01,-48.8 2526.99,-48.8 2526.99,-84.8"/>
<text text-anchor="middle" x="2449" y="-62.6" font-family="Times,serif" font-size="14.00">ChatUserListComponent</text>
</g>
<!-- ChatUserListComponent&#45;&gt;AppModule -->
<g id="edge6" class="edge">
<title>ChatUserListComponent&#45;&gt;AppModule</title>
<path fill="none" stroke="black" d="M2449,-84.97C2449,-103.89 2449,-130.8 2449,-130.8 2449,-130.8 1680.79,-130.8 1680.79,-130.8"/>
<polygon fill="black" stroke="black" points="1680.79,-127.3 1670.79,-130.8 1680.79,-134.3 1680.79,-127.3"/>
</g>
<!-- ChatUserModalComponent -->
<g id="node7" class="node">
<title>ChatUserModalComponent</title>
<polygon fill="#ffffb3" stroke="black" points="2353.26,-84.8 2182.74,-84.8 2182.74,-48.8 2353.26,-48.8 2353.26,-84.8"/>
<text text-anchor="middle" x="2268" y="-62.6" font-family="Times,serif" font-size="14.00">ChatUserModalComponent</text>
</g>
<!-- ChatUserModalComponent&#45;&gt;AppModule -->
<g id="edge7" class="edge">
<title>ChatUserModalComponent&#45;&gt;AppModule</title>
<path fill="none" stroke="black" d="M2268,-85.1C2268,-103.07 2268,-127.8 2268,-127.8 2268,-127.8 1680.93,-127.8 1680.93,-127.8"/>
<polygon fill="black" stroke="black" points="1680.93,-124.3 1670.93,-127.8 1680.93,-131.3 1680.93,-124.3"/>
</g>
<!-- DirectoryComponent -->
<g id="node8" class="node">
<title>DirectoryComponent</title>
<polygon fill="#ffffb3" stroke="black" points="2164.47,-84.8 2029.53,-84.8 2029.53,-48.8 2164.47,-48.8 2164.47,-84.8"/>
<text text-anchor="middle" x="2097" y="-62.6" font-family="Times,serif" font-size="14.00">DirectoryComponent</text>
</g>
<!-- DirectoryComponent&#45;&gt;AppModule -->
<g id="edge8" class="edge">
<title>DirectoryComponent&#45;&gt;AppModule</title>
<path fill="none" stroke="black" d="M2097,-84.84C2097,-101.53 2097,-123.8 2097,-123.8 2097,-123.8 1680.94,-123.8 1680.94,-123.8"/>
<polygon fill="black" stroke="black" points="1680.94,-120.3 1670.94,-123.8 1680.94,-127.3 1680.94,-120.3"/>
</g>
<!-- DirectoryModalComponent -->
<g id="node9" class="node">
<title>DirectoryModalComponent</title>
<polygon fill="#ffffb3" stroke="black" points="2011.53,-84.8 1840.47,-84.8 1840.47,-48.8 2011.53,-48.8 2011.53,-84.8"/>
<text text-anchor="middle" x="1926" y="-62.6" font-family="Times,serif" font-size="14.00">DirectoryModalComponent</text>
</g>
<!-- DirectoryModalComponent&#45;&gt;AppModule -->
<g id="edge9" class="edge">
<title>DirectoryModalComponent&#45;&gt;AppModule</title>
<path fill="none" stroke="black" d="M1926,-85.08C1926,-100.75 1926,-120.8 1926,-120.8 1926,-120.8 1680.92,-120.8 1680.92,-120.8"/>
<polygon fill="black" stroke="black" points="1680.92,-117.3 1670.92,-120.8 1680.92,-124.3 1680.92,-117.3"/>
</g>
<!-- FinderComponent -->
<g id="node10" class="node">
<title>FinderComponent</title>
<polygon fill="#ffffb3" stroke="black" points="1821.88,-84.8 1704.12,-84.8 1704.12,-48.8 1821.88,-48.8 1821.88,-84.8"/>
<text text-anchor="middle" x="1763" y="-62.6" font-family="Times,serif" font-size="14.00">FinderComponent</text>
</g>
<!-- FinderComponent&#45;&gt;AppModule -->
<g id="edge10" class="edge">
<title>FinderComponent&#45;&gt;AppModule</title>
<path fill="none" stroke="black" d="M1763,-84.92C1763,-99.58 1763,-117.8 1763,-117.8 1763,-117.8 1680.66,-117.8 1680.66,-117.8"/>
<polygon fill="black" stroke="black" points="1680.66,-114.3 1670.66,-117.8 1680.66,-121.3 1680.66,-114.3"/>
</g>
<!-- LoginComponent -->
<g id="node11" class="node">
<title>LoginComponent</title>
<polygon fill="#ffffb3" stroke="black" points="1686.27,-84.8 1571.73,-84.8 1571.73,-48.8 1686.27,-48.8 1686.27,-84.8"/>
<text text-anchor="middle" x="1629" y="-62.6" font-family="Times,serif" font-size="14.00">LoginComponent</text>
</g>
<!-- LoginComponent&#45;&gt;AppModule -->
<g id="edge11" class="edge">
<title>LoginComponent&#45;&gt;AppModule</title>
<path fill="none" stroke="black" d="M1629,-84.91C1629,-84.91 1629,-103.79 1629,-103.79"/>
<polygon fill="black" stroke="black" points="1625.5,-103.79 1629,-113.79 1632.5,-103.79 1625.5,-103.79"/>
</g>
<!-- OverviewComponent -->
<g id="node12" class="node">
<title>OverviewComponent</title>
<polygon fill="#ffffb3" stroke="black" points="1553.03,-84.8 1416.97,-84.8 1416.97,-48.8 1553.03,-48.8 1553.03,-84.8"/>
<text text-anchor="middle" x="1485" y="-62.6" font-family="Times,serif" font-size="14.00">OverviewComponent</text>
</g>
<!-- OverviewComponent&#45;&gt;AppModule -->
<g id="edge12" class="edge">
<title>OverviewComponent&#45;&gt;AppModule</title>
<path fill="none" stroke="black" d="M1485,-84.92C1485,-99.58 1485,-117.8 1485,-117.8 1485,-117.8 1576.96,-117.8 1576.96,-117.8"/>
<polygon fill="black" stroke="black" points="1576.96,-121.3 1586.96,-117.8 1576.96,-114.3 1576.96,-121.3"/>
</g>
<!-- ProfilComponent -->
<g id="node13" class="node">
<title>ProfilComponent</title>
<polygon fill="#ffffb3" stroke="black" points="1398.72,-84.8 1285.28,-84.8 1285.28,-48.8 1398.72,-48.8 1398.72,-84.8"/>
<text text-anchor="middle" x="1342" y="-62.6" font-family="Times,serif" font-size="14.00">ProfilComponent</text>
</g>
<!-- ProfilComponent&#45;&gt;AppModule -->
<g id="edge13" class="edge">
<title>ProfilComponent&#45;&gt;AppModule</title>
<path fill="none" stroke="black" d="M1342,-85.08C1342,-100.75 1342,-120.8 1342,-120.8 1342,-120.8 1577.27,-120.8 1577.27,-120.8"/>
<polygon fill="black" stroke="black" points="1577.27,-124.3 1587.27,-120.8 1577.27,-117.3 1577.27,-124.3"/>
</g>
<!-- RegisterComponent -->
<g id="node14" class="node">
<title>RegisterComponent</title>
<polygon fill="#ffffb3" stroke="black" points="1266.99,-84.8 1139.01,-84.8 1139.01,-48.8 1266.99,-48.8 1266.99,-84.8"/>
<text text-anchor="middle" x="1203" y="-62.6" font-family="Times,serif" font-size="14.00">RegisterComponent</text>
</g>
<!-- RegisterComponent&#45;&gt;AppModule -->
<g id="edge14" class="edge">
<title>RegisterComponent&#45;&gt;AppModule</title>
<path fill="none" stroke="black" d="M1203,-84.84C1203,-101.53 1203,-123.8 1203,-123.8 1203,-123.8 1576.99,-123.8 1576.99,-123.8"/>
<polygon fill="black" stroke="black" points="1576.99,-127.3 1586.99,-123.8 1576.99,-120.3 1576.99,-127.3"/>
</g>
<!-- SideBarLeftComponent -->
<g id="node15" class="node">
<title>SideBarLeftComponent</title>
<polygon fill="#ffffb3" stroke="black" points="1120.75,-84.8 971.25,-84.8 971.25,-48.8 1120.75,-48.8 1120.75,-84.8"/>
<text text-anchor="middle" x="1046" y="-62.6" font-family="Times,serif" font-size="14.00">SideBarLeftComponent</text>
</g>
<!-- SideBarLeftComponent&#45;&gt;AppModule -->
<g id="edge15" class="edge">
<title>SideBarLeftComponent&#45;&gt;AppModule</title>
<path fill="none" stroke="black" d="M1046,-85.1C1046,-103.07 1046,-127.8 1046,-127.8 1046,-127.8 1577.07,-127.8 1577.07,-127.8"/>
<polygon fill="black" stroke="black" points="1577.07,-131.3 1587.07,-127.8 1577.07,-124.3 1577.07,-131.3"/>
</g>
<!-- SideBarRightComponent -->
<g id="node16" class="node">
<title>SideBarRightComponent</title>
<polygon fill="#ffffb3" stroke="black" points="952.55,-84.8 795.45,-84.8 795.45,-48.8 952.55,-48.8 952.55,-84.8"/>
<text text-anchor="middle" x="874" y="-62.6" font-family="Times,serif" font-size="14.00">SideBarRightComponent</text>
</g>
<!-- SideBarRightComponent&#45;&gt;AppModule -->
<g id="edge16" class="edge">
<title>SideBarRightComponent&#45;&gt;AppModule</title>
<path fill="none" stroke="black" d="M874,-84.97C874,-103.89 874,-130.8 874,-130.8 874,-130.8 1577.33,-130.8 1577.33,-130.8"/>
<polygon fill="black" stroke="black" points="1577.33,-134.3 1587.33,-130.8 1577.33,-127.3 1577.33,-134.3"/>
</g>
<!-- UserComponent -->
<g id="node17" class="node">
<title>UserComponent</title>
<polygon fill="#ffffb3" stroke="black" points="776.77,-84.8 669.23,-84.8 669.23,-48.8 776.77,-48.8 776.77,-84.8"/>
<text text-anchor="middle" x="723" y="-62.6" font-family="Times,serif" font-size="14.00">UserComponent</text>
</g>
<!-- UserComponent&#45;&gt;AppModule -->
<g id="edge17" class="edge">
<title>UserComponent&#45;&gt;AppModule</title>
<path fill="none" stroke="black" d="M723,-85.11C723,-104.95 723,-133.8 723,-133.8 723,-133.8 1577.12,-133.8 1577.12,-133.8"/>
<polygon fill="black" stroke="black" points="1577.12,-137.3 1587.12,-133.8 1577.12,-130.3 1577.12,-137.3"/>
</g>
<!-- UserModalComponent -->
<g id="node18" class="node">
<title>UserModalComponent</title>
<polygon fill="#ffffb3" stroke="black" points="651.32,-84.8 506.68,-84.8 506.68,-48.8 651.32,-48.8 651.32,-84.8"/>
<text text-anchor="middle" x="579" y="-62.6" font-family="Times,serif" font-size="14.00">UserModalComponent</text>
</g>
<!-- UserModalComponent&#45;&gt;AppModule -->
<g id="edge18" class="edge">
<title>UserModalComponent&#45;&gt;AppModule</title>
<path fill="none" stroke="black" d="M579,-84.83C579,-105.57 579,-136.8 579,-136.8 579,-136.8 1577.19,-136.8 1577.19,-136.8"/>
<polygon fill="black" stroke="black" points="1577.19,-140.3 1587.19,-136.8 1577.19,-133.3 1577.19,-140.3"/>
</g>
<!-- WeatherComponent -->
<g id="node19" class="node">
<title>WeatherComponent</title>
<polygon fill="#ffffb3" stroke="black" points="488.24,-84.8 359.76,-84.8 359.76,-48.8 488.24,-48.8 488.24,-84.8"/>
<text text-anchor="middle" x="424" y="-62.6" font-family="Times,serif" font-size="14.00">WeatherComponent</text>
</g>
<!-- WeatherComponent&#45;&gt;AppModule -->
<g id="edge19" class="edge">
<title>WeatherComponent&#45;&gt;AppModule</title>
<path fill="none" stroke="black" d="M424,-85.09C424,-107.01 424,-140.8 424,-140.8 424,-140.8 1577.17,-140.8 1577.17,-140.8"/>
<polygon fill="black" stroke="black" points="1577.17,-144.3 1587.17,-140.8 1577.17,-137.3 1577.17,-144.3"/>
</g>
<!-- WeatherModalComponent -->
<g id="node20" class="node">
<title>WeatherModalComponent</title>
<polygon fill="#ffffb3" stroke="black" points="341.79,-84.8 176.21,-84.8 176.21,-48.8 341.79,-48.8 341.79,-84.8"/>
<text text-anchor="middle" x="259" y="-62.6" font-family="Times,serif" font-size="14.00">WeatherModalComponent</text>
</g>
<!-- WeatherModalComponent&#45;&gt;AppModule -->
<g id="edge20" class="edge">
<title>WeatherModalComponent&#45;&gt;AppModule</title>
<path fill="none" stroke="black" d="M259,-85.05C259,-107.82 259,-143.8 259,-143.8 259,-143.8 1577.25,-143.8 1577.25,-143.8"/>
<polygon fill="black" stroke="black" points="1577.25,-147.3 1587.25,-143.8 1577.25,-140.3 1577.25,-147.3"/>
</g>
<!-- AppComponent  -->
<g id="node23" class="node">
<title>AppComponent </title>
<polygon fill="#80b1d3" stroke="black" points="1683.44,-214.8 1574.56,-214.8 1574.56,-178.8 1683.44,-178.8 1683.44,-214.8"/>
<text text-anchor="middle" x="1629" y="-192.6" font-family="Times,serif" font-size="14.00">AppComponent </text>
</g>
<!-- AppModule&#45;&gt;AppComponent  -->
<g id="edge22" class="edge">
<title>AppModule&#45;&gt;AppComponent </title>
<path fill="none" stroke="black" stroke-dasharray="1,5" d="M1629,-149.91C1629,-149.91 1629,-168.79 1629,-168.79"/>
<polygon fill="black" stroke="black" points="1625.5,-168.79 1629,-178.79 1632.5,-168.79 1625.5,-168.79"/>
</g>
<!-- AppRoutingModule -->
<g id="node22" class="node">
<title>AppRoutingModule</title>
<polygon fill="#8dd3c7" stroke="black" points="152.28,-84.8 149.28,-88.8 128.28,-88.8 125.28,-84.8 23.72,-84.8 23.72,-48.8 152.28,-48.8 152.28,-84.8"/>
<text text-anchor="middle" x="88" y="-62.6" font-family="Times,serif" font-size="14.00">AppRoutingModule</text>
</g>
<!-- AppRoutingModule&#45;&gt;AppModule -->
<g id="edge21" class="edge">
<title>AppRoutingModule&#45;&gt;AppModule</title>
<path fill="none" stroke="black" d="M88,-84.95C88,-108.56 88,-146.8 88,-146.8 88,-146.8 1576.98,-146.8 1576.98,-146.8"/>
<polygon fill="black" stroke="black" points="1576.98,-150.3 1586.98,-146.8 1576.98,-143.3 1576.98,-150.3"/>
</g>
</g>
</svg>
